<?xml version="1.0" ?><svg enable-background="new 0 0 32 32" id="FILLED" version="1.1" viewBox="0 0 32 32" xml:space="preserve" xmlns="http://www.w3.org/2000/svg" xmlns:xlink="http://www.w3.org/1999/xlink"><g><g><path d="M28.083,12.606c0-6.687-5.41-12.107-12.083-12.107S3.917,5.92,3.917,12.606    c0,5.392,3.52,9.956,8.381,11.523L16,30.952l3.702-6.823C24.563,22.562,28.083,17.998,28.083,12.606z" fill="#FF0000"/><path d="M16,32.001l-4.047-7.459c-5.114-1.738-8.536-6.509-8.536-11.936C3.417,5.654,9.062-0.001,16-0.001    s12.583,5.655,12.583,12.607c0,5.427-3.422,10.197-8.536,11.936L16,32.001z M16,0.999c-6.387,0-11.583,5.207-11.583,11.607    c0,5.059,3.229,9.498,8.035,11.048l0.19,0.062L16,29.903l3.358-6.188l0.19-0.062c4.806-1.55,8.034-5.989,8.034-11.048    C27.583,6.206,22.387,0.999,16,0.999z"/></g><g><path d="M17.996,6.693c-1.244,0.454-2.031,1.624-1.941,2.905l0.03,0.494l-0.498-0.06    c-1.812-0.232-3.395-1.018-4.739-2.34L10.19,7.036L10.021,7.52c-0.358,1.079-0.129,2.219,0.617,2.985    c0.398,0.424,0.308,0.484-0.378,0.232c-0.239-0.08-0.448-0.141-0.468-0.111c-0.069,0.071,0.169,0.988,0.358,1.352    c0.259,0.505,0.786,0.998,1.364,1.291l0.488,0.232l-0.577,0.01c-0.557,0-0.577,0.01-0.517,0.222    c0.199,0.656,0.985,1.352,1.862,1.654l0.617,0.211l-0.537,0.323c-0.796,0.465-1.732,0.726-2.668,0.746    c-0.449,0.01-0.817,0.05-0.817,0.081c0,0.1,1.215,0.665,1.921,0.887c2.12,0.656,4.64,0.373,6.531-0.746    c1.344-0.797,2.688-2.38,3.315-3.914c0.339-0.816,0.677-2.309,0.677-3.025c0-0.464,0.03-0.525,0.587-1.079    c0.329-0.323,0.637-0.676,0.697-0.776c0.1-0.192,0.089-0.192-0.418-0.02c-0.846,0.303-0.966,0.262-0.547-0.191    c0.308-0.323,0.677-0.908,0.677-1.079c0-0.03-0.149,0.02-0.319,0.111c-0.179,0.101-0.577,0.252-0.876,0.343l-0.537,0.172    l-0.488-0.333c-0.269-0.181-0.647-0.383-0.846-0.444C19.23,6.512,18.454,6.532,17.996,6.693z" fill="#FFFFFF"/></g></g></svg>